<?xml version="1.0" standalone="no"?>
<!DOCTYPE svg PUBLIC "-//W3C//DTD SVG 20010904//EN"
 "http://www.w3.org/TR/2001/REC-SVG-20010904/DTD/svg10.dtd">
<svg version="1.0" xmlns="http://www.w3.org/2000/svg"
 width="300.000000pt" height="300.000000pt" viewBox="0 0 300.000000 300.000000"
 preserveAspectRatio="xMidYMid meet">
<metadata>
Created by potrace 1.10, written by Peter Selinger 2001-2011
</metadata>
<g transform="translate(0.000000,300.000000) scale(0.100000,-0.100000)"
fill="#000000" stroke="none">
<path d="M1928 2993 c7 -3 16 -2 19 1 4 3 -2 6 -13 5 -11 0 -14 -3 -6 -6z"/>
<path d="M1700 2980 c-11 -8 -7 -9 15 -4 37 8 45 14 19 14 -10 0 -26 -5 -34
-10z"/>
<path d="M2010 2970 c30 -10 56 -17 58 -16 5 6 -77 36 -96 36 -9 -1 8 -9 38
-20z"/>
<path d="M1624 2944 c-18 -14 -18 -14 6 -3 31 14 36 19 24 19 -6 0 -19 -7 -30
-16z"/>
<path d="M1582 2921 c-22 -13 -573 -565 -582 -582 -5 -8 59 53 142 137 82 84
219 220 303 303 84 83 152 151 151 151 0 0 -7 -4 -14 -9z"/>
<path d="M2144 2915 c22 -17 40 -20 32 -6 -3 5 -16 11 -28 14 -22 6 -22 5 -4
-8z"/>
<path d="M2215 2880 c3 -5 11 -10 16 -10 6 0 7 5 4 10 -3 6 -11 10 -16 10 -6
0 -7 -4 -4 -10z"/>
<path d="M2250 2866 c0 -3 14 -12 30 -21 17 -9 30 -13 30 -11 0 3 -13 12 -30
21 -16 9 -30 13 -30 11z"/>
<path d="M2320 2827 c0 -2 26 -21 58 -41 31 -20 45 -27 30 -14 -30 26 -88 62
-88 55z"/>
<path d="M1763 2750 c-35 -14 -27 -20 10 -8 17 6 34 13 36 14 8 7 -24 3 -46
-6z"/>
<path d="M1910 2757 c0 -3 15 -10 32 -16 18 -6 28 -7 23 -2 -12 10 -55 25 -55
18z"/>
<path d="M2490 2704 c70 -61 153 -144 214 -214 l48 -55 -48 64 c-52 67 -183
195 -237 232 -18 11 -7 -1 23 -27z"/>
<path d="M1473 2488 c-232 -229 -303 -311 -303 -347 0 -9 9 2 19 24 12 27 107
128 282 303 145 144 260 262 256 262 -5 0 -119 -109 -254 -242z"/>
<path d="M2011 2716 c10 -9 149 -76 149 -71 0 5 -136 75 -146 75 -4 0 -5 -2
-3 -4z"/>
<path d="M2170 2636 c0 -2 17 -14 38 -25 l37 -21 -30 25 c-28 23 -45 31 -45
21z"/>
<path d="M2275 2568 c111 -85 202 -176 293 -294 12 -16 19 -21 14 -11 -32 68
-250 286 -319 319 -10 5 -4 -1 12 -14z"/>
<path d="M2765 2405 c9 -16 28 -43 42 -60 l25 -30 -18 33 c-10 18 -29 45 -42
60 l-23 27 16 -30z"/>
<path d="M2063 2362 c-6 -4 24 -7 67 -7 43 0 73 3 67 7 -7 4 -37 8 -67 8 -30
0 -60 -4 -67 -8z"/>
<path d="M2020 2335 c-11 -13 -10 -14 4 -9 9 3 16 10 16 15 0 13 -6 11 -20 -6z"/>
<path d="M2252 2321 c20 -17 42 -47 48 -67 7 -19 14 -33 16 -31 16 15 -41 99
-81 119 -11 6 -3 -4 17 -21z"/>
<path d="M961 2267 c-42 -97 -52 -257 -21 -328 l11 -24 -6 25 c-24 112 -14
234 26 327 10 23 16 43 13 43 -2 0 -13 -20 -23 -43z"/>
<path d="M2861 2250 c31 -61 48 -83 26 -32 -20 43 -47 92 -52 92 -3 0 9 -27
26 -60z"/>
<path d="M1965 2276 c-9 -14 -18 -51 -20 -83 l-4 -58 9 59 c5 32 17 70 25 82
9 13 13 24 10 24 -2 0 -12 -11 -20 -24z"/>
<path d="M2610 2210 c11 -19 41 -75 66 -124 46 -94 63 -120 44 -71 -18 48 -89
178 -111 205 -20 24 -20 23 1 -10z"/>
<path d="M2322 2185 c0 -16 2 -22 5 -12 2 9 2 23 0 30 -3 6 -5 -1 -5 -18z"/>
<path d="M2900 2173 c0 -5 7 -18 15 -29 13 -18 14 -18 8 4 -5 22 -23 41 -23
25z"/>
<path d="M2301 2108 c-6 -18 -24 -46 -39 -63 l-27 -30 29 25 c27 24 62 87 53
97 -3 2 -10 -11 -16 -29z"/>
<path d="M1951 2121 c-1 -14 37 -81 46 -81 2 0 -4 15 -15 33 -11 17 -22 39
-25 47 -4 11 -6 12 -6 1z"/>
<path d="M1162 2100 c0 -14 2 -19 5 -12 2 6 2 18 0 25 -3 6 -5 1 -5 -13z"/>
<path d="M2945 2078 c4 -13 11 -27 16 -33 5 -5 4 5 -2 23 -12 36 -24 44 -14
10z"/>
<path d="M1166 2025 c3 -22 10 -44 14 -49 5 -5 5 8 -1 30 -15 57 -20 64 -13
19z"/>
<path d="M2010 2036 c0 -2 8 -10 18 -17 15 -13 16 -12 3 4 -13 16 -21 21 -21
13z"/>
<path d="M2972 2020 c0 -8 4 -26 8 -40 6 -20 8 -21 8 -5 0 11 -3 29 -8 40 -5
12 -8 14 -8 5z"/>
<path d="M2060 2000 c8 -5 28 -10 44 -10 39 0 30 6 -19 13 -27 4 -35 3 -25 -3z"/>
<path d="M2153 1993 c9 -2 23 -2 30 0 6 3 -1 5 -18 5 -16 0 -22 -2 -12 -5z"/>
<path d="M2736 1960 c3 -14 11 -32 16 -40 6 -10 7 -7 2 10 -3 14 -11 32 -16
40 -6 10 -7 7 -2 -10z"/>
<path d="M1200 1936 c0 -11 30 -66 36 -66 2 0 -3 15 -12 33 -19 36 -24 44 -24
33z"/>
<path d="M161 1894 c0 -11 3 -14 6 -6 3 7 2 16 -1 19 -3 4 -6 -2 -5 -13z"/>
<path d="M960 1885 c0 -5 5 -17 10 -25 5 -8 10 -10 10 -5 0 6 -5 17 -10 25 -5
8 -10 11 -10 5z"/>
<path d="M1240 1851 c0 -6 4 -13 10 -16 6 -3 7 1 4 9 -7 18 -14 21 -14 7z"/>
<path d="M996 1807 c3 -10 9 -15 12 -12 3 3 0 11 -7 18 -10 9 -11 8 -5 -6z"/>
<path d="M1270 1800 c6 -11 13 -20 16 -20 2 0 0 9 -6 20 -6 11 -13 20 -16 20
-2 0 0 -9 6 -20z"/>
<path d="M2736 1761 c-12 -25 -112 -132 -285 -305 -147 -146 -265 -266 -262
-266 3 0 124 118 269 263 228 227 315 327 299 343 -2 2 -12 -13 -21 -35z"/>
<path d="M1026 1745 c5 -12 -11 -35 -52 -76 -32 -32 -55 -59 -51 -59 12 0 117
113 117 126 0 7 -4 16 -10 19 -6 3 -7 -1 -4 -10z"/>
<path d="M1301 1734 c0 -11 3 -14 6 -6 3 7 2 16 -1 19 -3 4 -6 -2 -5 -13z"/>
<path d="M2981 1734 c0 -11 3 -14 6 -6 3 7 2 16 -1 19 -3 4 -6 -2 -5 -13z"/>
<path d="M1300 1678 c0 -8 -9 -27 -21 -42 -11 -14 -16 -26 -11 -26 13 0 48 68
39 76 -4 4 -7 0 -7 -8z"/>
<path d="M2941 1633 c-10 -26 -10 -27 4 -9 8 11 15 23 15 28 0 15 -7 8 -19
-19z"/>
<path d="M895 1590 c-3 -5 -1 -10 4 -10 6 0 11 5 11 10 0 6 -2 10 -4 10 -3 0
-8 -4 -11 -10z"/>
<path d="M1235 1590 c-3 -5 -1 -10 4 -10 6 0 11 5 11 10 0 6 -2 10 -4 10 -3 0
-8 -4 -11 -10z"/>
<path d="M2909 1583 c-13 -16 -12 -17 4 -4 9 7 17 15 17 17 0 8 -8 3 -21 -13z"/>
<path d="M810 1505 c-35 -36 -62 -65 -58 -65 6 0 59 51 107 104 47 51 15 25
-49 -39z"/>
<path d="M1200 1555 c-11 -13 -10 -14 4 -9 9 3 16 10 16 15 0 13 -6 11 -20 -6z"/>
<path d="M2620 1286 c-223 -221 -286 -278 -332 -301 -32 -15 -58 -29 -58 -31
0 -10 76 29 119 60 42 32 562 546 551 546 -3 0 -129 -123 -280 -274z"/>
<path d="M1165 1520 c-3 -5 -1 -10 4 -10 6 0 11 5 11 10 0 6 -2 10 -4 10 -3 0
-8 -4 -11 -10z"/>
<path d="M1135 1490 c-3 -5 -1 -10 4 -10 6 0 11 5 11 10 0 6 -2 10 -4 10 -3 0
-8 -4 -11 -10z"/>
<path d="M1095 1450 c-3 -5 -1 -10 4 -10 6 0 11 5 11 10 0 6 -2 10 -4 10 -3 0
-8 -4 -11 -10z"/>
<path d="M705 1400 c-16 -17 -26 -30 -23 -30 9 0 60 51 56 55 -3 3 -17 -9 -33
-25z"/>
<path d="M1065 1420 c-3 -5 -1 -10 4 -10 6 0 11 5 11 10 0 6 -2 10 -4 10 -3 0
-8 -4 -11 -10z"/>
<path d="M1030 1385 c-8 -9 -8 -15 -2 -15 12 0 26 19 19 26 -2 2 -10 -2 -17
-11z"/>
<path d="M655 1350 c-3 -5 -1 -10 4 -10 6 0 11 5 11 10 0 6 -2 10 -4 10 -3 0
-8 -4 -11 -10z"/>
<path d="M995 1350 c-3 -5 -1 -10 4 -10 6 0 11 5 11 10 0 6 -2 10 -4 10 -3 0
-8 -4 -11 -10z"/>
<path d="M605 1300 c-16 -17 -26 -30 -22 -30 9 0 59 51 54 56 -2 2 -16 -10
-32 -26z"/>
<path d="M965 1320 c-3 -5 -1 -10 4 -10 6 0 11 5 11 10 0 6 -2 10 -4 10 -3 0
-8 -4 -11 -10z"/>
<path d="M1705 1301 c22 -4 50 -13 63 -19 12 -7 22 -10 22 -8 0 13 -62 36 -92
35 -32 -1 -32 -2 7 -8z"/>
<path d="M925 1280 c-3 -5 -2 -10 4 -10 5 0 13 5 16 10 3 6 2 10 -4 10 -5 0
-13 -4 -16 -10z"/>
<path d="M1620 1280 c-9 -6 -10 -10 -3 -10 6 0 15 5 18 10 8 12 4 12 -15 0z"/>
<path d="M1800 1266 c0 -3 14 -12 30 -21 17 -9 30 -13 30 -11 0 3 -13 12 -30
21 -16 9 -30 13 -30 11z"/>
<path d="M520 1215 c-24 -25 -42 -45 -38 -45 8 0 89 82 85 86 -2 2 -23 -17
-47 -41z"/>
<path d="M895 1250 c-3 -5 -1 -10 4 -10 6 0 11 5 11 10 0 6 -2 10 -4 10 -3 0
-8 -4 -11 -10z"/>
<path d="M1590 1241 c-5 -11 -10 -38 -10 -60 0 -32 7 -48 31 -73 l31 -33 -26
33 c-28 36 -35 96 -16 133 6 10 8 19 6 19 -3 0 -10 -9 -16 -19z"/>
<path d="M860 1215 c-8 -9 -8 -15 -2 -15 12 0 26 19 19 26 -2 2 -10 -2 -17
-11z"/>
<path d="M1910 1205 c14 -8 30 -14 35 -14 6 0 -1 6 -15 14 -14 8 -29 14 -35
14 -5 0 1 -6 15 -14z"/>
<path d="M825 1180 c-3 -5 -1 -10 4 -10 6 0 11 5 11 10 0 6 -2 10 -4 10 -3 0
-8 -4 -11 -10z"/>
<path d="M1966 1181 c9 -9 83 -27 74 -18 -3 3 -23 10 -44 16 -22 5 -35 6 -30
2z"/>
<path d="M2100 1170 c-20 -6 -21 -8 -5 -8 11 0 29 3 40 8 25 11 -1 11 -35 0z"/>
<path d="M385 1080 c-44 -44 -77 -80 -73 -80 6 0 83 75 137 134 52 56 12 22
-64 -54z"/>
<path d="M795 1150 c-3 -5 -1 -10 4 -10 6 0 11 5 11 10 0 6 -2 10 -4 10 -3 0
-8 -4 -11 -10z"/>
<path d="M755 1110 c-3 -5 -1 -10 4 -10 6 0 11 5 11 10 0 6 -2 10 -4 10 -3 0
-8 -4 -11 -10z"/>
<path d="M725 1080 c-3 -5 -1 -10 4 -10 6 0 11 5 11 10 0 6 -2 10 -4 10 -3 0
-8 -4 -11 -10z"/>
<path d="M1655 1072 c16 -16 146 -84 151 -80 2 3 -33 24 -78 47 -46 24 -78 38
-73 33z"/>
<path d="M690 1045 c-7 -9 -8 -15 -2 -15 5 0 12 7 16 15 3 8 4 15 2 15 -2 0
-9 -7 -16 -15z"/>
<path d="M655 1010 c-3 -5 -1 -10 4 -10 6 0 11 5 11 10 0 6 -2 10 -4 10 -3 0
-8 -4 -11 -10z"/>
<path d="M230 925 c-36 -36 -62 -65 -58 -65 9 0 130 122 125 126 -2 2 -32 -26
-67 -61z"/>
<path d="M620 975 c-11 -13 -10 -14 4 -9 9 3 16 10 16 15 0 13 -6 11 -20 -6z"/>
<path d="M1850 970 c8 -5 20 -10 25 -10 6 0 3 5 -5 10 -8 5 -19 10 -25 10 -5
0 -3 -5 5 -10z"/>
<path d="M585 940 c-3 -5 -1 -10 4 -10 6 0 11 5 11 10 0 6 -2 10 -4 10 -3 0
-8 -4 -11 -10z"/>
<path d="M1927 940 c13 -5 46 -12 75 -14 52 -6 52 -5 -12 9 -75 16 -94 18 -63
5z"/>
<path d="M2130 934 l-65 -14 57 5 c31 3 67 9 80 14 31 13 7 11 -72 -5z"/>
<path d="M557 913 c-4 -3 -7 -11 -7 -17 0 -6 5 -5 12 2 6 6 9 14 7 17 -3 3 -9
2 -12 -2z"/>
<path d="M1028 893 c57 -2 147 -2 200 0 53 1 7 3 -103 3 -110 0 -154 -2 -97
-3z"/>
<path d="M878 861 c-18 -16 -31 -31 -28 -33 3 -2 20 12 38 30 42 40 34 42 -10
3z"/>
<path d="M1360 859 c19 -19 37 -33 39 -32 7 4 -32 44 -54 56 -11 5 -4 -5 15
-24z"/>
<path d="M515 870 c-3 -5 -1 -10 4 -10 6 0 11 5 11 10 0 6 -2 10 -4 10 -3 0
-8 -4 -11 -10z"/>
<path d="M90 785 c-36 -36 -62 -65 -58 -65 8 0 129 122 125 126 -2 2 -32 -26
-67 -61z"/>
<path d="M485 840 c-3 -5 -1 -10 4 -10 6 0 11 5 11 10 0 6 -2 10 -4 10 -3 0
-8 -4 -11 -10z"/>
<path d="M450 805 c-11 -13 -10 -14 4 -9 9 3 16 10 16 15 0 13 -6 11 -20 -6z"/>
<path d="M842 693 l-2 -122 -102 -4 -103 -3 103 -2 c77 -1 104 1 108 11 2 7 3
65 1 128 l-3 114 -2 -122z"/>
<path d="M1403 775 c0 -22 2 -30 4 -17 2 12 2 30 0 40 -3 9 -5 -1 -4 -23z"/>
<path d="M415 770 c-3 -5 -1 -10 4 -10 6 0 11 5 11 10 0 6 -2 10 -4 10 -3 0
-8 -4 -11 -10z"/>
<path d="M385 740 c-3 -5 -1 -10 4 -10 6 0 11 5 11 10 0 6 -2 10 -4 10 -3 0
-8 -4 -11 -10z"/>
<path d="M1380 700 c-6 -11 -8 -20 -6 -20 3 0 10 9 16 20 6 11 8 20 6 20 -3 0
-10 -9 -16 -20z"/>
<path d="M10 690 c-6 -11 -8 -20 -6 -20 3 0 10 9 16 20 6 11 8 20 6 20 -3 0
-10 -9 -16 -20z"/>
<path d="M345 700 c-3 -5 -1 -10 4 -10 6 0 11 5 11 10 0 6 -2 10 -4 10 -3 0
-8 -4 -11 -10z"/>
<path d="M315 670 c-3 -5 -1 -10 4 -10 6 0 11 5 11 10 0 6 -2 10 -4 10 -3 0
-8 -4 -11 -10z"/>
<path d="M1335 670 c-11 -5 -75 -9 -142 -9 l-123 -1 0 -126 c0 -69 -5 -135
-11 -147 -10 -21 -10 -21 5 -3 13 16 16 46 16 142 l0 122 130 4 c86 2 133 7
142 16 14 14 11 14 -17 2z"/>
<path d="M280 635 c-8 -9 -8 -15 -2 -15 12 0 26 19 19 26 -2 2 -10 -2 -17 -11z"/>
<path d="M245 600 c-3 -5 -1 -10 4 -10 6 0 11 5 11 10 0 6 -2 10 -4 10 -3 0
-8 -4 -11 -10z"/>
<path d="M234 410 c0 -96 2 -136 3 -87 2 48 2 126 0 175 -1 48 -3 8 -3 -88z"/>
<path d="M590 560 c-18 -12 -2 -12 25 0 13 6 15 9 5 9 -8 0 -22 -4 -30 -9z"/>
<path d="M539 524 c-23 -24 -24 -32 -25 -157 l-1 -132 6 132 c6 121 8 133 30
157 14 14 22 26 19 26 -2 0 -15 -12 -29 -26z"/>
<path d="M1025 350 c-3 -6 1 -7 9 -4 18 7 21 14 7 14 -6 0 -13 -4 -16 -10z"/>
<path d="M870 330 l-125 -6 120 -2 c66 -1 127 3 135 8 8 5 11 9 5 8 -5 -1 -66
-5 -135 -8z"/>
<path d="M10 60 c6 -11 13 -20 16 -20 2 0 0 9 -6 20 -6 11 -13 20 -16 20 -2 0
0 -9 6 -20z"/>
<path d="M730 60 c-6 -11 -8 -20 -6 -20 3 0 10 9 16 20 6 11 8 20 6 20 -3 0
-10 -9 -16 -20z"/>
<path d="M54 16 c11 -9 24 -16 30 -16 12 0 7 5 -24 19 -24 11 -24 11 -6 -3z"/>
<path d="M680 15 c-14 -8 -20 -14 -14 -15 5 0 19 7 30 15 24 18 16 19 -16 0z"/>
</g>
</svg>
